<svg width="53" height="53" viewBox="0 0 53 53" fill="none" xmlns="http://www.w3.org/2000/svg">
<g clip-path="url(#clip0_2355_6876)">
<path d="M50.5905 0.318359H2.40925C1.25421 0.318359 0.317871 1.2547 0.317871 2.40974V50.591C0.317871 51.746 1.25421 52.6824 2.40925 52.6824H50.5905C51.7455 52.6824 52.6819 51.746 52.6819 50.591V2.40974C52.6819 1.2547 51.7455 0.318359 50.5905 0.318359Z" fill="#5F138D"/>
<path d="M10.4341 21.4292V23.3637H14.7133V25.1451H10.4341V28.6171H8.46094V19.6484H15.2895V21.4292H10.4341Z" fill="white"/>
<path d="M24.0278 27.8353C23.7764 28.034 23.5035 28.2038 23.2142 28.3414C22.9059 28.4863 22.5811 28.5931 22.247 28.6594C21.8588 28.7357 21.4639 28.7723 21.0683 28.7686C20.4395 28.7743 19.8162 28.6523 19.2361 28.4098C18.6896 28.1822 18.1932 27.8492 17.7754 27.4298C17.3612 27.0092 17.0346 26.5105 16.8145 25.9628C16.5819 25.389 16.4643 24.7751 16.4684 24.156V24.1306C16.4637 23.513 16.5813 22.9005 16.8145 22.3286C17.0375 21.7806 17.3637 21.2806 17.7754 20.8557C18.1942 20.4267 18.6953 20.0867 19.2488 19.8561C19.8505 19.6081 20.4964 19.4851 21.1472 19.4947C21.5318 19.4918 21.9157 19.526 22.2936 19.5969C22.6163 19.6587 22.9319 19.7532 23.2354 19.8789C23.5111 19.9953 23.7732 20.1414 24.0172 20.3146C24.2543 20.484 24.4771 20.6726 24.6834 20.8785L23.4262 22.3259C23.1052 22.0308 22.7451 21.7811 22.3562 21.5839C21.9746 21.4007 21.5556 21.3087 21.1324 21.3152C20.7727 21.3119 20.4166 21.3862 20.0883 21.533C19.7739 21.6739 19.4924 21.879 19.262 22.1351C19.0287 22.3958 18.8463 22.6978 18.7241 23.0255C18.5942 23.3716 18.529 23.7386 18.5317 24.1083V24.1338C18.5294 24.5054 18.5946 24.8745 18.7241 25.2229C18.8444 25.5517 19.024 25.8557 19.2541 26.1197C19.4887 26.3851 19.7778 26.5969 20.1017 26.7406C20.4255 26.8843 20.7765 26.9565 21.1308 26.9523C21.6435 26.9523 22.077 26.8583 22.4314 26.6703C22.8156 26.4613 23.1709 26.2029 23.4882 25.9018L24.7438 27.1701C24.5223 27.4096 24.2829 27.632 24.0278 27.8353Z" fill="white"/>
<path d="M33.3417 28.6171V22.7617L30.8173 26.5925H30.7643L28.2659 22.8003V28.6171H26.3208V19.6484H28.4472L30.8046 23.4411L33.162 19.6484H35.2889V28.6171H33.3417Z" fill="white"/>
<path d="M44.8153 27.2333C44.6567 27.5417 44.4237 27.8059 44.1374 28.0018C43.8152 28.219 43.456 28.3755 43.0774 28.4634C42.626 28.5702 42.1633 28.6218 41.6994 28.6171H37.4414V19.6484H41.5982C42.5186 19.6484 43.241 19.8578 43.7654 20.2765C44.2897 20.6952 44.5521 21.2589 44.5524 21.9677V21.9958C44.5561 22.2257 44.5237 22.4548 44.4565 22.6747C44.3968 22.8624 44.3111 23.0408 44.2021 23.2047C44.0983 23.3601 43.9734 23.5003 43.8311 23.6213C43.6924 23.7402 43.5409 23.8433 43.3795 23.9287C43.8979 24.1255 44.306 24.3925 44.6038 24.7295C44.9017 25.0666 45.0504 25.5334 45.0501 26.1298V26.1552C45.0592 26.5282 44.9787 26.8979 44.8153 27.2333ZM42.6047 22.3006C42.6047 22.0016 42.4937 21.7732 42.2718 21.6153C42.0499 21.4573 41.7296 21.3784 41.3109 21.3784H39.3632V23.2742H41.1811C41.6167 23.2742 41.9627 23.1994 42.2188 23.05C42.475 22.9005 42.6031 22.6592 42.6031 22.326L42.6047 22.3006ZM43.1045 25.8881C43.1091 25.7502 43.08 25.6132 43.0197 25.4891C42.9594 25.3649 42.8697 25.2574 42.7584 25.1758C42.5276 25.0009 42.1566 24.9126 41.6454 24.9108H39.3664V26.884H41.7111C42.1467 26.884 42.4884 26.805 42.7361 26.6471C42.9838 26.4891 43.1075 26.2436 43.1071 25.9104L43.1045 25.8881Z" fill="white"/>
<path d="M44.903 34.3633V38.7549H8.26514V36.4451C8.26507 36.1717 8.31887 35.901 8.42347 35.6484C8.52806 35.3957 8.68141 35.1662 8.87474 34.9729C9.06807 34.7796 9.2976 34.6262 9.55021 34.5216C9.80282 34.417 10.0736 34.3632 10.347 34.3633H44.903Z" fill="#FFB717"/>
<path d="M8.26514 40.1758H44.903V44.5673H10.347C10.0735 44.5674 9.80273 44.5136 9.55009 44.409C9.29744 44.3043 9.06789 44.1509 8.87455 43.9576C8.68121 43.7642 8.52788 43.5346 8.42331 43.2819C8.31875 43.0292 8.265 42.7584 8.26514 42.485V40.1758Z" fill="#FFB717"/>
</g>
<defs>
<clipPath id="clip0_2355_6876">
<rect width="53" height="53" fill="white"/>
</clipPath>
</defs>
</svg>