<svg width="26" height="10" viewBox="0 0 26 10" fill="none" xmlns="http://www.w3.org/2000/svg">
<path d="M7.63206 7.48154L5.16425 7.44619C4.50788 7.44619 3.87838 7.18544 3.41425 6.72131C2.95013 6.25718 2.68938 5.62769 2.68938 4.97131C2.68938 4.31494 2.95013 3.68544 3.41425 3.22131C3.87838 2.75718 4.50788 2.49644 5.16425 2.49644L11.5919 2.48937C12.2231 2.48834 12.8305 2.73 13.2885 3.16433C13.7466 3.59866 14.0201 4.19244 14.0526 4.82282L14.0667 4.97838C14.0695 5.24375 14.1777 5.49713 14.3673 5.68278C14.5569 5.86843 14.8125 5.97114 15.0779 5.96833C15.3433 5.96552 15.5966 5.85741 15.7823 5.66778C15.9679 5.47815 16.0707 5.22253 16.0678 4.95717C16.0795 4.86566 16.0866 4.77362 16.0891 4.6814C16.0106 3.55262 15.506 2.49586 14.6776 1.72517C13.8491 0.954484 12.7587 0.52749 11.6272 0.530681L5.15718 0.495325C4.00288 0.544223 2.91209 1.03717 2.11261 1.87123C1.31313 2.70529 0.866789 3.81597 0.866788 4.97131C0.866788 6.12666 1.31313 7.23733 2.11261 8.07139C2.91209 8.90545 4.00288 9.3984 5.15718 9.4473L7.57549 9.47558C7.82804 9.4646 8.06707 9.35837 8.24446 9.17827C8.42186 8.99818 8.52447 8.75758 8.53164 8.50488C8.5388 8.25219 8.45 8.00616 8.2831 7.8163C8.1162 7.62643 7.88358 7.50682 7.63206 7.48154ZM25.2602 4.97131C25.2565 3.78534 24.7838 2.64901 23.9452 1.81039C23.1065 0.971784 21.9702 0.499022 20.7842 0.495326L18.3659 0.467042C18.1134 0.478026 17.8744 0.584253 17.697 0.76435C17.5196 0.944447 17.417 1.18505 17.4098 1.43774C17.4026 1.69043 17.4914 1.93646 17.6583 2.12633C17.8252 2.31619 18.0578 2.4358 18.3094 2.46108L20.7489 2.46815C21.4053 2.46815 22.0348 2.7289 22.4989 3.19303C22.963 3.65716 23.2238 4.28665 23.2238 4.94303C23.2238 5.5994 22.963 6.2289 22.4989 6.69303C22.0348 7.15716 21.4053 7.4179 20.7489 7.4179L14.3213 7.42497C13.6901 7.426 13.0826 7.18434 12.6246 6.75001C12.1666 6.31568 11.893 5.7219 11.8606 5.09152L11.8464 4.93596C11.8436 4.67059 11.7355 4.41721 11.5459 4.23156C11.3562 4.04591 11.1006 3.94319 10.8353 3.94601C10.5699 3.94882 10.3165 4.05693 10.1309 4.24656C9.94521 4.43619 9.84249 4.69181 9.8453 4.95717C9.84413 5.06106 9.84886 5.16494 9.85944 5.2683C9.94022 6.39622 10.4455 7.45161 11.2734 8.22183C12.1014 8.99205 13.1905 9.41984 14.3213 9.41901L20.756 9.41901C21.942 9.42283 23.0813 8.95726 23.9252 8.12394C24.7691 7.29063 25.2491 6.15726 25.2602 4.97131Z" fill="#262833"/>
</svg>